<?xml version="1.0" encoding="UTF-8"?>
<svg id="Layer_1" xmlns="http://www.w3.org/2000/svg" version="1.1" viewBox="0 0 144 144">
  <!-- Generator: Adobe Illustrator 29.5.0, SVG Export Plug-In . SVG Version: 2.1.0 Build 137)  -->
  <defs>
    <style>
      .st0 {
        fill: #6a462c;
      }
    </style>
  </defs>
  <path class="st0" d="M143.88,134.59l-44.09-.05v-12.7s44.1.05,44.1.05v-9.43s-44.08-.05-44.08-.05v-12.2s44.1.05,44.1.05l.05-55.06-44.09-.05v-12.56s44.1.05,44.1.05v-9.43s-44.08-.05-44.08-.05v-12.65s44.1.05,44.1.05V1.15s-55.08-.05-55.08-.05c-.01,14.8-.03,29.58-.04,44.37h-12.17S76.75,0,76.75,0h-9.42s-.05,45.45-.05,45.45l-12.13-.02.05-44.37L.14,1.02v9.43s44.08.05,44.08.05v12.65s-44.12-.05-44.12-.05v9.41s44.09.05,44.09.05v12.56s-44.1-.04-44.1-.04l-.05,55.06h9.42s34.67.04,34.67.04v12.2s-44.1-.05-44.1-.05v9.43s44.08.05,44.08.05v12.7S0,134.45,0,134.45v9.43s55.08.05,55.08.05c.01-14.87.03-29.74.04-44.6h12.13s-.04,44.61-.04,44.61h9.42s.04-44.6.04-44.6h12.18c-.01,14.88-.03,29.75-.04,44.61l55.09.05v-9.43s-.02.01-.02.01ZM9.47,89.72l.04-34.23,13.4.02-.04,34.23s-13.4-.02-13.4-.02ZM32.29,89.74l.04-34.23h11.84s-.04,34.23-.04,34.23l-11.84-.02h0ZM55.16,55.84c11.46,0,22.26.02,33.73.02v11.94s-33.74-.04-33.74-.04v-11.94s0,.01,0,.01ZM55.12,89.89v-12.7s33.74.04,33.74.04v12.7s-33.74-.04-33.74-.04ZM134.55,55.62l-.04,34.23-13.4-.02.04-34.23,13.41.02h-.01ZM99.88,55.58h11.84s-.04,34.23-.04,34.23h-11.84s.04-34.23.04-34.23Z"/>
</svg>